<svg xmlns="http://www.w3.org/2000/svg" viewBox="0 0 64 64"><g id="Layer_90" data-name="Layer 90"><path d="M48.93,36.88C60.5,25.34,48.41,10.19,32,10.5c-14.39,0-26,11-19.78,22.74a9.36,9.36,0,0,0,1.24,12.2l-2.81,5.91a1.51,1.51,0,0,0,2,2l8.16-3.89c6.88,2,16.19-1.16,18.63-7l11.91,5.68a1.51,1.51,0,0,0,2-2ZM28.86,25.32h5a1.5,1.5,0,0,1,0,3h-5A1.5,1.5,0,0,1,28.86,25.32Zm-10,0h5a1.5,1.5,0,0,1,0,3h-5A1.5,1.5,0,0,1,18.86,25.32ZM25.42,47a16.87,16.87,0,0,1-4.57-.63,1.55,1.55,0,0,0-.9.16h0l-4.74,2.26,1.46-3.07A1.52,1.52,0,0,0,16.26,44c-2.55-2.17-3.51-5.18-2.12-8,4.49,5.32,13.59,8.13,21.49,7C33.51,45.39,29.66,47,25.42,47Zm18.44-18.7h-5a1.5,1.5,0,0,1,0-3h5A1.5,1.5,0,0,1,43.86,28.32Z"/></g></svg>