<?xml version="1.0" encoding="UTF-8" standalone="no"?> <svg width="64" height="64" viewBox="0 0 64 64" fill="none" xmlns="http://www.w3.org/2000/svg">
<path d="M25.3198 20.71H42.4598C42.8576 20.71 43.2392 20.5519 43.5205 20.2706C43.8018 19.9893 43.9598 19.6078 43.9598 19.21C43.9598 18.8121 43.8018 18.4306 43.5205 18.1493C43.2392 17.868 42.8576 17.71 42.4598 17.71H25.3198C24.922 17.71 24.5405 17.868 24.2592 18.1493C23.9779 18.4306 23.8198 18.8121 23.8198 19.21C23.8198 19.6078 23.9779 19.9893 24.2592 20.2706C24.5405 20.5519 24.922 20.71 25.3198 20.71Z" fill="url(#paint0_linear_135:13262)"/>
<path d="M33.7099 2.50001C28.7993 2.49686 23.9755 3.79499 19.7297 6.26222C15.4839 8.72945 11.9676 12.2777 9.53893 16.5457C7.11023 20.8137 5.85584 25.649 5.90344 30.5594C5.95105 35.4698 7.29895 40.2799 9.80993 44.5L2.64993 59.35C2.52247 59.6299 2.48353 59.9421 2.5383 60.2447C2.59307 60.5473 2.73896 60.826 2.95643 61.0435C3.1739 61.261 3.4526 61.4069 3.75524 61.4616C4.05788 61.5164 4.37003 61.4775 4.64993 61.35L19.5499 54.19C23.2286 56.3726 27.3615 57.6765 31.6266 58.0003C35.8918 58.324 40.1741 57.6588 44.1401 56.0565C48.1061 54.4542 51.6487 51.958 54.4919 48.7623C57.3352 45.5666 59.4024 41.7577 60.5325 37.6323C61.6626 33.5069 61.8252 29.1762 61.0075 24.9777C60.1898 20.7791 58.414 16.826 55.8183 13.4261C53.2226 10.0263 49.8772 7.27155 46.0425 5.37642C42.2078 3.48128 37.9874 2.49692 33.7099 2.50001V2.50001ZM33.7099 55.07C29.0119 55.0764 24.4104 53.7369 20.4499 51.21C20.2341 51.0767 19.9884 50.9996 19.7351 50.9856C19.4818 50.9717 19.2291 51.0213 18.9999 51.13L7.20993 56.79L12.8699 45C12.9804 44.7695 13.031 44.515 13.017 44.2598C13.003 44.0046 12.9249 43.757 12.7899 43.54C9.84968 38.8933 8.53853 33.4006 9.06293 27.9269C9.58733 22.4531 11.9175 17.3093 15.6865 13.3053C19.4555 9.30135 24.4492 6.66477 29.8813 5.81072C35.3134 4.95667 40.8752 5.93368 45.691 8.58791C50.5069 11.2421 54.303 15.4228 56.4818 20.4715C58.6606 25.5203 59.0982 31.1503 57.7257 36.4751C56.3532 41.7999 53.2486 46.5169 48.9007 49.8833C44.5528 53.2498 39.2087 55.0745 33.7099 55.07V55.07Z" fill="url(#paint1_linear_135:13262)"/>
<path d="M17.9297 28.3604H49.8597C50.2575 28.3604 50.639 28.2023 50.9203 27.921C51.2017 27.6397 51.3597 27.2582 51.3597 26.8604C51.3597 26.4625 51.2017 26.081 50.9203 25.7997C50.639 25.5184 50.2575 25.3604 49.8597 25.3604H17.9297C17.5319 25.3604 17.1503 25.5184 16.869 25.7997C16.5877 26.081 16.4297 26.4625 16.4297 26.8604C16.4297 27.2582 16.5877 27.6397 16.869 27.921C17.1503 28.2023 17.5319 28.3604 17.9297 28.3604Z" fill="url(#paint2_linear_135:13262)"/>
<path d="M49.8597 33H17.9297C17.5319 33 17.1503 33.158 16.869 33.4393C16.5877 33.7206 16.4297 34.1022 16.4297 34.5C16.4297 34.8978 16.5877 35.2794 16.869 35.5607C17.1503 35.842 17.5319 36 17.9297 36H49.8597C50.2575 36 50.639 35.842 50.9203 35.5607C51.2017 35.2794 51.3597 34.8978 51.3597 34.5C51.3597 34.1022 51.2017 33.7206 50.9203 33.4393C50.639 33.158 50.2575 33 49.8597 33V33Z" fill="url(#paint3_linear_135:13262)"/>
<path d="M42.4598 40.6396H25.3198C24.922 40.6396 24.5405 40.7977 24.2592 41.079C23.9779 41.3603 23.8198 41.7418 23.8198 42.1396C23.8198 42.5375 23.9779 42.919 24.2592 43.2003C24.5405 43.4816 24.922 43.6396 25.3198 43.6396H42.4598C42.8576 43.6396 43.2392 43.4816 43.5205 43.2003C43.8018 42.919 43.9598 42.5375 43.9598 42.1396C43.9598 41.7418 43.8018 41.3603 43.5205 41.079C43.2392 40.7977 42.8576 40.6396 42.4598 40.6396V40.6396Z" fill="url(#paint4_linear_135:13262)"/>
<defs>
<linearGradient id="paint0_linear_135:13262" x1="23.8198" y1="19.21" x2="43.9598" y2="19.21" gradientUnits="userSpaceOnUse">
<stop stop-color="#FF71E6"/>
<stop offset="0.26" stop-color="#F659E7"/>
<stop offset="0.75" stop-color="#E632E8"/>
<stop offset="1" stop-color="#E023E8"/>
</linearGradient>
<linearGradient id="paint1_linear_135:13262" x1="149.439" y1="1890.63" x2="3631.37" y2="1890.63" gradientUnits="userSpaceOnUse">
<stop stop-color="#FF71E6"/>
<stop offset="0.26" stop-color="#F659E7"/>
<stop offset="0.75" stop-color="#E632E8"/>
<stop offset="1" stop-color="#E023E8"/>
</linearGradient>
<linearGradient id="paint2_linear_135:13262" x1="590.33" y1="105.94" x2="1810.43" y2="105.94" gradientUnits="userSpaceOnUse">
<stop stop-color="#FF71E6"/>
<stop offset="0.26" stop-color="#F659E7"/>
<stop offset="0.75" stop-color="#E632E8"/>
<stop offset="1" stop-color="#E023E8"/>
</linearGradient>
<linearGradient id="paint3_linear_135:13262" x1="590.33" y1="136.5" x2="1810.43" y2="136.5" gradientUnits="userSpaceOnUse">
<stop stop-color="#FF71E6"/>
<stop offset="0.26" stop-color="#F659E7"/>
<stop offset="0.75" stop-color="#E632E8"/>
<stop offset="1" stop-color="#E023E8"/>
</linearGradient>
<linearGradient id="paint4_linear_135:13262" x1="503.555" y1="167.06" x2="909.174" y2="167.06" gradientUnits="userSpaceOnUse">
<stop stop-color="#FF71E6"/>
<stop offset="0.26" stop-color="#F659E7"/>
<stop offset="0.75" stop-color="#E632E8"/>
<stop offset="1" stop-color="#E023E8"/>
</linearGradient>
</defs>
</svg>
