<?xml version="1.0" encoding="UTF-8"?>
<!DOCTYPE svg PUBLIC "-//W3C//DTD SVG 1.1//EN" "http://www.w3.org/Graphics/SVG/1.1/DTD/svg11.dtd">
<!-- Creator: CorelDRAW X7 -->
<svg xmlns="http://www.w3.org/2000/svg" xml:space="preserve" width="0.999992in" height="0.999992in" version="1.1" style="shape-rendering:geometricPrecision; text-rendering:geometricPrecision; image-rendering:optimizeQuality; fill-rule:evenodd; clip-rule:evenodd"
viewBox="0 0 1000 1000"
 xmlns:xlink="http://www.w3.org/1999/xlink">
 <defs>
  <style type="text/css">
   <![CDATA[
    .fil0 {fill:black;fill-rule:nonzero}
   ]]>
  </style>
 </defs>
 <g id="Layer_x0020_1">
  <metadata id="CorelCorpID_0Corel-Layer"/>
  <path class="fil0" d="M407 201c111,0 212,34 285,89l0 0c75,57 122,137 122,225 0,88 -47,167 -122,224l-2 1c-73,55 -173,89 -283,89 -20,0 -39,-1 -58,-3 -17,-2 -33,-5 -49,-8l-22 12 0 0 -157 82c-12,7 -27,2 -33,-10 -2,-4 -3,-9 -3,-13l7 -174c-27,-27 -50,-56 -66,-89 -17,-34 -26,-72 -26,-111 0,-88 47,-168 122,-225l2 -1c73,-55 173,-88 283,-88zm255 128c-65,-49 -155,-79 -255,-79 -100,0 -189,30 -254,78l-2 1c-63,48 -102,114 -102,186 0,32 8,62 21,90 15,29 36,57 63,81l0 0c6,4 9,11 9,19l-1 10 -5 134 119 -62 0 0 0 0 30 -16 1 0c4,-3 10,-4 16,-2 17,3 34,6 52,8 17,2 35,3 53,3 99,0 189,-30 254,-78l1 -2c64,-48 103,-113 103,-185 0,-72 -39,-138 -103,-186l0 0 0 0z"/>
  <path class="fil0" d="M593 134c-63,0 -123,12 -174,34 -25,10 -47,22 -67,35 18,-1 36,-2 55,-2 111,0 212,34 285,89l0 0c75,57 122,137 122,225 0,34 -7,67 -21,98 -9,23 -22,44 -37,64l108 57 -5 -135 -1 -10c0,-7 3,-14 9,-19l0 0c27,-24 48,-51 63,-81 13,-28 21,-58 21,-90 0,-72 -39,-137 -102,-185l-2 -2c-65,-48 -154,-78 -254,-78zm-193 -12c57,-23 123,-37 193,-37 110,0 210,34 283,88l2 2c75,57 122,136 122,224 0,39 -9,77 -26,112 -16,32 -39,62 -66,88l7 174c0,5 -1,9 -3,13 -6,12 -21,17 -33,11l-157 -83 0 0 -16 -8c-2,-1 -4,-2 -6,-4 -9,-9 -10,-25 -1,-35 21,-22 38,-46 49,-73 11,-25 17,-51 17,-79 0,-72 -39,-138 -103,-186l0 0 0 0c-65,-49 -155,-79 -255,-79 -23,0 -45,1 -66,4 -22,3 -43,8 -63,13 -8,3 -17,2 -24,-4 -10,-9 -11,-24 -3,-35 37,-44 88,-80 149,-106z"/>
  <path class="fil0" d="M289 431c-13,0 -24,-11 -24,-25 0,-13 11,-24 24,-24l248 0c14,0 25,11 25,24 0,14 -11,25 -25,25l-248 0z"/>
  <path class="fil0" d="M210 524c-14,0 -25,-11 -25,-25 0,-13 11,-24 25,-24l248 0c13,0 24,11 24,24 0,14 -11,25 -24,25l-248 0z"/>
  <path class="fil0" d="M604 475c14,0 25,11 25,24 0,14 -11,25 -25,25l-78 0c-14,0 -25,-11 -25,-25 0,-13 11,-24 25,-24l78 0z"/>
  <path class="fil0" d="M289 626c-13,0 -24,-11 -24,-24 0,-14 11,-25 24,-25l248 0c14,0 25,11 25,25 0,13 -11,24 -25,24l-248 0z"/>
 </g>
</svg>
